<?xml version="1.0" encoding="iso-8859-1"?>
<!-- Uploaded to: SVG Repo, www.svgrepo.com, Generator: SVG Repo Mixer Tools -->
<svg fill="#000000" height="800px" width="800px" version="1.1" id="Layer_1" xmlns="http://www.w3.org/2000/svg" xmlns:xlink="http://www.w3.org/1999/xlink" 
	 viewBox="0 0 512 512" xml:space="preserve">
<g>
	<g>
		<path d="M368.551,241.553v-23.371h11.198v-81.07h-12.715C360.03,98.31,329.1,67.739,290.109,61.288V0.019h-94.503v61.269
			c-38.99,6.45-69.921,37.022-76.926,75.825h-12.715v81.07h11.198V430.93h-11.198V512H379.75v-81.07h-11.198v-23.369V241.553z
			 M228.997,33.41h27.72v26.6h-27.72V33.41z M210.961,93.401h63.792c27.519,0,50.799,18.498,58.06,43.711H152.9
			C160.162,111.899,183.442,93.401,210.961,93.401z M346.359,478.609H139.356v-14.287h207.003V478.609z M335.16,241.553H226.161
			v166.008H335.16v23.369H150.554V218.182H335.16V241.553z M335.16,274.944v99.224h0h-75.608v-99.224H335.16z M346.359,184.791
			H139.356v-14.287h207.003V184.791z"/>
	</g>
</g>
<g>
	<g>
		<circle cx="337.009" cy="39.068" r="9.1"/>
	</g>
</g>
<g>
	<g>
		<circle cx="396.935" cy="9.1" r="9.1"/>
	</g>
</g>
<g>
	<g>
		<circle cx="396.935" cy="69.031" r="9.1"/>
	</g>
</g>
<g>
	<g>
		<circle cx="396.935" cy="39.068" r="9.1"/>
	</g>
</g>
<g>
	<g>
		<circle cx="366.972" cy="54.051" r="9.1"/>
	</g>
</g>
<g>
	<g>
		<circle cx="366.972" cy="24.084" r="9.1"/>
	</g>
</g>
</svg>